<svg xmlns="http://www.w3.org/2000/svg" width="512" height="512" viewBox="0 0 512 512" version="1.1">
	<path d="M 235.250 57.453 C 224.662 69.239, 216 79.304, 216 79.820 C 216 80.336, 217.555 83.340, 219.456 86.496 C 221.356 89.652, 224.327 95.636, 226.058 99.794 C 230.764 111.098, 236.129 134, 234.071 134 C 233.665 134, 231.660 131.572, 229.617 128.605 C 227.573 125.638, 223.336 120.765, 220.201 117.776 C 213.577 111.461, 197.576 100.526, 196.203 101.375 C 195.687 101.694, 189.796 108.012, 183.112 115.416 L 170.960 128.878 179.021 133.072 C 207.963 148.129, 227 184.810, 227 225.521 C 227 266.691, 209.223 292.030, 178.500 294.651 C 149.847 297.094, 116.495 268.853, 102.739 230.500 C 94.384 207.205, 94.311 177.603, 102.537 148.759 C 108.690 127.187, 122.457 101.150, 138.257 81.205 C 141 77.743, 143.041 74.708, 142.793 74.460 C 142.545 74.212, 139.097 76.245, 135.130 78.978 C 98.636 104.118, 71.689 137.221, 55.551 176.736 C 45.112 202.296, 40.075 226.515, 39.274 255 C 38.679 276.155, 40.681 293.873, 45.998 314.491 C 65.587 390.466, 124.655 449.684, 201 469.886 C 223.868 475.937, 257.344 479.061, 277.500 477.025 C 343.705 470.339, 402.872 434.715, 440.167 379.085 C 449.109 365.747, 460.777 341.856, 465.849 326.500 C 494.879 238.615, 465.962 141.821, 393.390 83.955 C 367.061 62.962, 333.060 47.026, 300.837 40.578 C 286.335 37.676, 271.963 35.995, 261.789 36.012 L 254.500 36.024 235.250 57.453 M 265.728 61.750 C 265.428 65.463, 265.277 68.598, 265.392 68.718 C 265.508 68.837, 269.854 69.405, 275.051 69.980 C 286.145 71.206, 300.154 73.861, 301.313 74.957 C 301.760 75.380, 301.406 78.504, 300.526 81.899 C 299.646 85.294, 299.156 88.443, 299.436 88.897 C 299.716 89.350, 302.718 90.499, 306.106 91.450 C 328.523 97.740, 354.175 112.469, 373.317 130.042 L 380.134 136.300 385.410 131.088 L 390.687 125.877 396.021 131.689 C 398.955 134.885, 404.256 141.455, 407.801 146.290 C 414.005 154.750, 414.327 155.023, 416.374 153.561 C 417.543 152.726, 420.201 151.042, 422.280 149.820 C 424.809 148.333, 425.869 147.102, 425.484 146.097 C 422.558 138.473, 398.032 111.030, 384.096 99.786 C 361.415 81.488, 333.578 67.491, 305.927 60.482 C 294.046 57.470, 278.556 55.014, 271.387 55.006 L 266.274 55 265.728 61.750 M 255 256.523 L 255 392.245 263.973 391.816 C 268.909 391.580, 273.156 391.177, 273.413 390.921 C 273.669 390.665, 272.316 377.640, 270.406 361.977 C 268.496 346.315, 266.836 331.321, 266.717 328.659 L 266.500 323.817 273.653 321.978 C 285.177 319.016, 297.622 311.588, 305.298 303.091 C 307.331 300.841, 309.210 299, 309.472 299 C 309.735 299, 321.958 307.995, 336.635 318.990 C 357.555 334.661, 363.612 338.737, 364.671 337.858 C 368.805 334.427, 382.028 309.561, 380.460 308.166 C 379.932 307.696, 366 301.562, 349.500 294.535 C 333 287.508, 319.419 281.694, 319.319 281.615 C 319.219 281.536, 320.007 278.337, 321.069 274.507 C 323.708 264.988, 323.678 249.972, 320.999 239.495 C 319.898 235.191, 319.110 231.563, 319.249 231.432 C 319.387 231.301, 332.775 225.518, 349 218.580 C 365.225 211.642, 379.171 205.542, 379.990 205.025 C 381.254 204.228, 380.896 202.900, 377.637 196.292 C 373.788 188.489, 365.667 175.530, 363.969 174.481 C 363.471 174.173, 351.463 182.627, 337.282 193.266 C 323.102 203.906, 310.913 212.965, 310.195 213.398 C 309.336 213.917, 307.116 212.516, 303.695 209.295 C 293.930 200.102, 284.840 194.884, 273.653 192.046 C 269.557 191.008, 266.386 189.648, 266.234 188.866 C 266.087 188.115, 267.737 172.875, 269.900 155 C 272.062 137.125, 273.608 122.275, 273.334 122 C 273.060 121.725, 268.823 121.343, 263.918 121.151 L 255 120.801 255 256.523 M 429.275 168.159 L 423.049 171.154 425.900 176.827 C 428.413 181.827, 434.592 197.582, 436.437 203.693 C 437.040 205.690, 436.469 206.073, 430.049 207.985 C 426.172 209.140, 423 210.563, 423 211.148 C 423 211.733, 423.656 214.751, 424.458 217.856 C 426.745 226.712, 429 246.146, 429 257 C 429 267.854, 426.745 287.288, 424.458 296.144 C 423.656 299.249, 423 302.267, 423 302.852 C 423 303.437, 426.172 304.860, 430.049 306.015 C 436.469 307.927, 437.040 308.310, 436.437 310.307 C 434.593 316.416, 428.414 332.172, 425.903 337.168 L 423.054 342.837 429.699 345.946 C 433.354 347.657, 436.662 348.706, 437.050 348.278 C 438.915 346.222, 446.359 327.795, 449.469 317.532 C 460.877 279.897, 461.844 243.862, 452.441 206.769 C 448.571 191.500, 438.219 164.863, 436.240 165.082 C 435.833 165.126, 432.699 166.511, 429.275 168.159 M 407.798 367.714 C 404.254 372.546, 398.955 379.115, 396.021 382.311 L 390.687 388.123 385.410 382.912 L 380.134 377.700 373.317 383.948 C 353.950 401.699, 329.433 415.715, 305.500 422.718 C 302.750 423.523, 300.134 424.529, 299.687 424.954 C 299.240 425.378, 299.606 428.549, 300.500 432 C 301.394 435.451, 301.760 438.620, 301.313 439.043 C 300.154 440.139, 286.145 442.794, 275.051 444.020 C 269.854 444.595, 265.508 445.163, 265.392 445.282 C 265.277 445.402, 265.428 448.538, 265.728 452.250 L 266.274 459 271.387 458.994 C 283.998 458.980, 309.122 453.597, 326 447.294 C 356.002 436.089, 382.317 418.439, 405 394.306 C 412.863 385.940, 424.183 371.351, 425.448 367.952 C 425.784 367.050, 424.759 365.712, 422.744 364.421 C 420.960 363.277, 418.317 361.574, 416.871 360.635 L 414.242 358.928 407.798 367.714" stroke="none" fill="black" fill-rule="evenodd"/>
</svg>